Run_30001
nRows=4
nColumns=164

# SIMM Motion File Header:
name Run_30001
datacolumns 164
datarows 4
otherdata 1
range 2.71000000 2.74000000
endheader
time	pelvis_tilt	pelvis_list	pelvis_rotation	pelvis_tx	pelvis_ty	pelvis_tz	hip_flexion_r	hip_adduction_r	hip_rotation_r	knee_angle_r	ankle_angle_r	hip_flexion_l	hip_adduction_l	hip_rotation_l	knee_angle_l	ankle_angle_l	lumbar_extension	lumbar_bending	lumbar_rotation	arm_flex_r	arm_add_r	arm_rot_r	elbow_flex_r	pro_sup_r	arm_flex_l	arm_add_l	arm_rot_l	elbow_flex_l	pro_sup_l	subtalar_angle_r	mtp_angle_r	subtalar_angle_l	mtp_angle_l	wrist_flex_r	wrist_dev_r	wrist_flex_l	wrist_dev_l	LASI_tx	LASI_ty	LASI_tz	RASI_tx	RASI_ty	RASI_tz	LPSI_tx	LPSI_ty	LPSI_tz	RPSI_tx	RPSI_ty	RPSI_tz	RTH1_tx	RTH1_ty	RTH1_tz	RTH2_tx	RTH2_ty	RTH2_tz	RTH3_tx	RTH3_ty	RTH3_tz	LTH1_tx	LTH1_ty	LTH1_tz	LTH2_tx	LTH2_ty	LTH2_tz	LTH3_tx	LTH3_ty	LTH3_tz	RTB1_tx	RTB1_ty	RTB1_tz	RTB2_tx	RTB2_ty	RTB2_tz	RTB3_tx	RTB3_ty	RTB3_tz	LTB1_tx	LTB1_ty	LTB1_tz	LTB2_tx	LTB2_ty	LTB2_tz	LTB3_tx	LTB3_ty	LTB3_tz	RCAL_tx	RCAL_ty	RCAL_tz	RTOE_tx	RTOE_ty	RTOE_tz	RMT5_tx	RMT5_ty	RMT5_tz	LCAL_tx	LCAL_ty	LCAL_tz	LTOE_tx	LTOE_ty	LTOE_tz	LACR_tx	LACR_ty	LACR_tz	RACR_tx	RACR_ty	RACR_tz	CLAV_tx	CLAV_ty	CLAV_tz	C7_tx	C7_ty	C7_tz	RUA1_tx	RUA1_ty	RUA1_tz	RUA2_tx	RUA2_ty	RUA2_tz	RUA3_tx	RUA3_ty	RUA3_tz	RLEL_tx	RLEL_ty	RLEL_tz	RMEL_tx	RMEL_ty	RMEL_tz	LUA1_tx	LUA1_ty	LUA1_tz	LUA2_tx	LUA2_ty	LUA2_tz	LUA3_tx	LUA3_ty	LUA3_tz	LLEL_tx	LLEL_ty	LLEL_tz	LMEL_tx	LMEL_ty	LMEL_tz	RFAsuperior_tx	RFAsuperior_ty	RFAsuperior_tz	RFAradius_tx	RFAradius_ty	RFAradius_tz	RFAulna_tx	RFAulna_ty	RFAulna_tz	LFAsuperior_tx	LFAsuperior_ty	LFAsuperior_tz	LFAradius_tx	LFAradius_ty	LFAradius_tz	LFAulna_tx	LFAulna_ty	LFAulna_tz	LMT5_tx	LMT5_ty	LMT5_tz
      2.71000000	     -6.76217771	      6.30195936	     -0.82579381	      0.72523527	      1.05754323	     -0.33574982	    -10.67843754	     -2.18481328	     -5.84083898	    -28.18000205	    -25.31368623	     32.36934983	      8.89088640	     -4.13215758	    -34.94383046	     -6.32424422	     -0.83084134	     -4.52163073	      7.82882731	    -14.34138994	    -18.06523427	     -0.45797615	    105.23171541	     86.92276123	    -47.65384091	    -41.37967957	     14.88792349	    102.99162561	     69.42762416	      0.00000000	      0.00000000	      0.00000000	      0.00000000	      0.00000000	      0.00000000	      0.00000000	      0.00000000	      0.73019388	      1.07231810	     -0.46548343	      0.72265509	      1.03697694	     -0.21054051	      0.55152940	      1.14039621	     -0.38052472	      0.55319581	      1.13459775	     -0.29548994	      0.62196651	      0.91211349	     -0.16283441	      0.62964192	      0.76797989	     -0.18742194	      0.51924221	      0.69358192	     -0.20489248	      0.69277769	      0.95702021	     -0.52583270	      0.79937408	      0.87335498	     -0.49549010	      0.77140197	      0.71745945	     -0.48577493	      0.44691072	      0.45169173	     -0.27152224	      0.34308662	      0.40575521	     -0.22862189	      0.30415287	      0.31112223	     -0.29081246	      0.85113597	      0.49991109	     -0.41901584	      0.78804885	      0.42638829	     -0.48503452	      0.80707656	      0.29811424	     -0.40539372	      0.13424636	      0.32099410	     -0.32601446	      0.24666615	      0.11692936	     -0.33042114	      0.18707488	      0.11421007	     -0.25402652	      0.66411503	      0.16895326	     -0.38817105	      0.89128341	      0.13052221	     -0.38176354	      0.68551890	      1.60541548	     -0.49093599	      0.70312316	      1.57059445	     -0.16433615	      0.77075301	      1.54023988	     -0.31604843	      0.63351246	      1.61335946	     -0.34152843	      0.65446428	      1.46383897	     -0.07788889	      0.57997531	      1.38890864	     -0.09342064	      0.62446237	      1.35195440	     -0.04246877	      0.61898559	      1.25612814	     -0.01606674	      0.57819887	      1.23233974	     -0.08644893	      0.59863227	      1.56146301	     -0.58660751	      0.51012673	      1.51927090	     -0.57559410	      0.52518353	      1.48972346	     -0.65083310	      0.47925031	      1.42101111	     -0.69788653	      0.41966518	      1.41848821	     -0.64639623	      0.69059892	      1.22235267	     -0.03784153	      0.85845938	      1.23884023	     -0.15471595	      0.84857118	      1.17124153	     -0.13188053	      0.52051683	      1.30390794	     -0.67020965	      0.60018781	      1.21266243	     -0.56644234	      0.54497970	      1.18118810	     -0.58921292	      0.85984989	      0.09404416	     -0.45954654
      2.72000000	     -6.75776748	      5.82267049	     -0.23407791	      0.72688676	      1.05800366	     -0.33642157	    -10.48755103	     -1.49968370	     -5.69295533	    -31.47562092	    -25.04832243	     30.44102525	      9.11298336	     -2.51113449	    -28.07498795	     -7.42283464	     -0.68245388	     -4.15959081	      7.24971981	    -14.93686210	    -17.95594034	     -0.02554086	    105.38505682	     87.38849684	    -47.67116041	    -40.98665027	     14.64917994	    103.56888432	     68.78053070	      0.00000000	      0.00000000	      0.00000000	      0.00000000	      0.00000000	      0.00000000	      0.00000000	      0.00000000	      0.73052500	      1.07339858	     -0.46571826	      0.72527828	      1.03853876	     -0.21161040	      0.55260122	      1.14072821	     -0.37935982	      0.55493224	      1.13674360	     -0.29397379	      0.62647222	      0.91290401	     -0.16211373	      0.63446827	      0.76856727	     -0.18765547	      0.52433251	      0.69360060	     -0.20290467	      0.69111954	      0.95434767	     -0.52572814	      0.79678932	      0.86863119	     -0.49520784	      0.76504892	      0.71320332	     -0.48624608	      0.44480914	      0.45414203	     -0.26988168	      0.33860372	      0.41363464	     -0.22729755	      0.29403745	      0.32245670	     -0.29050732	      0.84963535	      0.49626211	     -0.41828860	      0.79256790	      0.41789964	     -0.48358018	      0.82329121	      0.29173285	     -0.40376295	      0.12330654	      0.34087419	     -0.32251561	      0.22856623	      0.13345620	     -0.33569420	      0.16754994	      0.13063567	     -0.25600907	      0.69194612	      0.15112743	     -0.38634454	      0.92098947	      0.13191231	     -0.37578583	      0.68549143	      1.60531712	     -0.49204966	      0.70400436	      1.57150803	     -0.16517513	      0.77130391	      1.54092891	     -0.31711610	      0.63403653	      1.61394096	     -0.34235307	      0.65459893	      1.46533484	     -0.07883514	      0.57972024	      1.39087342	     -0.09430901	      0.62353980	      1.35387036	     -0.04298014	      0.61772513	      1.25798039	     -0.01663742	      0.57623541	      1.23471939	     -0.08676275	      0.59827981	      1.56086757	     -0.58717969	      0.50989294	      1.51838900	     -0.57553013	      0.52466729	      1.48859805	     -0.65074555	      0.47878219	      1.41929593	     -0.69716206	      0.41955440	      1.41661517	     -0.64534085	      0.68884387	      1.22352870	     -0.03915187	      0.85572805	      1.23900979	     -0.15752069	      0.84581579	      1.17166803	     -0.13435524	      0.52170778	      1.30307653	     -0.66887020	      0.60377685	      1.21383899	     -0.56520169	      0.54845519	      1.18154623	     -0.58657999	      0.89422039	      0.09018355	     -0.45277611
      2.73000000	     -6.65607715	      5.29447344	      0.28811355	      0.72862876	      1.05736156	     -0.33694440	    -10.09956541	     -0.86741727	     -5.93157581	    -35.25410450	    -24.62684510	     28.53067943	      9.06631149	     -1.28592458	    -22.08572357	     -8.38977293	     -0.61738272	     -3.75127107	      6.70509592	    -15.58395867	    -17.79782771	      0.32047576	    105.20079280	     87.87801084	    -47.29996560	    -40.70151367	     14.68023585	    104.02981074	     68.18706339	      0.00000000	      0.00000000	      0.00000000	      0.00000000	      0.00000000	      0.00000000	      0.00000000	      0.00000000	      0.73120065	      1.07265034	     -0.46587737	      0.72788017	      1.03926496	     -0.21226471	      0.55367406	      1.13941925	     -0.37834648	      0.55657786	      1.13755591	     -0.29274744	      0.63141601	      0.91235665	     -0.16142504	      0.63964107	      0.76801011	     -0.18746008	      0.53032236	      0.69218530	     -0.20159136	      0.69020989	      0.95140127	     -0.52525645	      0.79378995	      0.86270500	     -0.49510232	      0.75781002	      0.70785889	     -0.48657171	      0.44436248	      0.45557160	     -0.26865927	      0.33597934	      0.42096863	     -0.22614195	      0.28561084	      0.33366323	     -0.29006948	      0.84729286	      0.49233124	     -0.41792134	      0.79439572	      0.41041563	     -0.48203768	      0.83640199	      0.28680242	     -0.40277547	      0.11541021	      0.36151094	     -0.32038433	      0.21144255	      0.14989268	     -0.33784658	      0.15024879	      0.14835162	     -0.25804300	      0.71573213	      0.13752823	     -0.38325750	      0.94534462	      0.13428939	     -0.37210777	      0.68547392	      1.60391188	     -0.49325118	      0.70463349	      1.57142224	     -0.16592689	      0.77167153	      1.54046180	     -0.31805992	      0.63441407	      1.61354269	     -0.34323888	      0.65491392	      1.46504250	     -0.07977157	      0.57910680	      1.39178111	     -0.09532335	      0.62233737	      1.35450257	     -0.04376201	      0.61584464	      1.25860732	     -0.01749039	      0.57390265	      1.23599836	     -0.08752182	      0.59833033	      1.55861574	     -0.58827957	      0.51010616	      1.51551929	     -0.57620985	      0.52500564	      1.48543402	     -0.65130937	      0.47959449	      1.41536853	     -0.69716473	      0.42054082	      1.41226697	     -0.64510733	      0.68608613	      1.22293884	     -0.04032763	      0.85277356	      1.23646437	     -0.15981288	      0.84242597	      1.16939816	     -0.13606480	      0.52432030	      1.30014906	     -0.66790517	      0.60855682	      1.21321719	     -0.56405771	      0.55336153	      1.17996834	     -0.58431551	      0.92171959	      0.08806556	     -0.44779245
      2.74000000	     -6.44636169	      4.82801157	      0.68397131	      0.73036109	      1.05564388	     -0.33721276	     -9.53386181	     -0.48273519	     -6.52956679	    -39.47275910	    -23.94857498	     26.84358034	      8.83812811	     -1.10661652	    -17.42820305	     -9.09448600	     -0.64403165	     -3.43232217	      6.21615099	    -16.23339226	    -17.58031457	      0.63088671	    104.63981140	     88.11795023	    -46.61307448	    -40.52815029	     14.87348635	    104.39983186	     67.72643977	      0.00000000	      0.00000000	      0.00000000	      0.00000000	      0.00000000	      0.00000000	      0.00000000	      0.00000000	      0.73226628	      1.07014917	     -0.46582030	      0.73039417	      1.03898958	     -0.21247809	      0.55468949	      1.13683051	     -0.37752146	      0.55815295	      1.13618761	     -0.29216014	      0.63617102	      0.91072126	     -0.16077398	      0.64488376	      0.76618244	     -0.18664390	      0.53692703	      0.68924052	     -0.20076600	      0.68981591	      0.94803478	     -0.52460995	      0.79021677	      0.85572729	     -0.49527738	      0.74980186	      0.70165344	     -0.48630906	      0.44550540	      0.45588927	     -0.26741229	      0.33518041	      0.42783933	     -0.22502078	      0.27912120	      0.34457243	     -0.28915534	      0.84467321	      0.48848426	     -0.41760522	      0.79426581	      0.40392951	     -0.48027468	      0.84596407	      0.28304574	     -0.40202124	      0.11089483	      0.38250248	     -0.31975607	      0.19579988	      0.16603226	     -0.33617879	      0.13593157	      0.16709164	     -0.25944812	      0.73400436	      0.12806579	     -0.37830945	      0.96354211	      0.13593739	     -0.37178593	      0.68543312	      1.60117691	     -0.49458380	      0.70483003	      1.57034861	     -0.16671338	      0.77181839	      1.53886748	     -0.31891468	      0.63452765	      1.61208390	     -0.34427990	      0.65505082	      1.46330442	     -0.08070700	      0.57793021	      1.39167406	     -0.09646945	      0.62071076	      1.35393395	     -0.04477017	      0.61328698	      1.25795670	     -0.01865840	      0.57119493	      1.23617083	     -0.08870080	      0.59871626	      1.55469774	     -0.58989265	      0.51074222	      1.51078026	     -0.57763573	      0.52612069	      1.48022891	     -0.65250139	      0.48162249	      1.40927782	     -0.69798888	      0.42255930	      1.40546504	     -0.64576085	      0.68228473	      1.22053768	     -0.04137731	      0.84963245	      1.23129759	     -0.16141160	      0.83818940	      1.16440776	     -0.13706774	      0.52837380	      1.29523470	     -0.66752392	      0.61448059	      1.21087330	     -0.56305772	      0.55965741	      1.17653249	     -0.58256998	      0.94059999	      0.08668666	     -0.44592160
